HIERARCHY
ROOT joint_Root
{
	OFFSET 0.0 0.0 0.0
	CHANNELS 6 Xposition Yposition Zposition Zrotation Xrotation Yrotation 
	JOINT Hips
	{
		OFFSET -17.1583 93.1646 452.98
		CHANNELS 6 Xposition Yposition Zposition Zrotation Xrotation Yrotation 
		JOINT Spine
		{
			OFFSET 15.7357 0.0 0.0
			CHANNELS 6 Xposition Yposition Zposition Zrotation Xrotation Yrotation 
			JOINT Chest
			{
				OFFSET 8.98455 -0.406207 0.0
				CHANNELS 6 Xposition Yposition Zposition Zrotation Xrotation Yrotation 
				JOINT Neck
				{
					OFFSET 16.3773 0.0 0.0
					CHANNELS 6 Xposition Yposition Zposition Zrotation Xrotation Yrotation 
					JOINT Head
					{
						OFFSET 6.45672 0.0 0.0
						CHANNELS 6 Xposition Yposition Zposition Zrotation Xrotation Yrotation 
						End Site
						{
							OFFSET 0.0 0.0 0.0
						}
					}
				}
				JOINT Shoulder_L
				{
					OFFSET 12.9942 -0.242716 4.98039
					CHANNELS 6 Xposition Yposition Zposition Zrotation Xrotation Yrotation 
					JOINT UpperArm_L
					{
						OFFSET 5.34809 0.0 0.0
						CHANNELS 6 Xposition Yposition Zposition Zrotation Xrotation Yrotation 
						JOINT LowerArm_L
						{
							OFFSET 24.3286 1.87007e-05 0.0
							CHANNELS 6 Xposition Yposition Zposition Zrotation Xrotation Yrotation 
							JOINT Hand_L
							{
								OFFSET 22.2916 0.0 0.0
								CHANNELS 6 Xposition Yposition Zposition Zrotation Xrotation Yrotation 
								End Site
								{
									OFFSET 0.0 0.0 0.0
								}
							}
						}
					}
				}
				JOINT Shoulder_R
				{
					OFFSET 12.9945 -0.242716 -4.98039
					CHANNELS 6 Xposition Yposition Zposition Zrotation Xrotation Yrotation 
					JOINT UpperArm_R
					{
						OFFSET -5.34813 0.0 0.0
						CHANNELS 6 Xposition Yposition Zposition Zrotation Xrotation Yrotation 
						JOINT LowerArm_R
						{
							OFFSET -24.3289 0.000322201 0.0
							CHANNELS 6 Xposition Yposition Zposition Zrotation Xrotation Yrotation 
							JOINT Hand_R
							{
								OFFSET -22.2915 -0.000108084 0.0
								CHANNELS 6 Xposition Yposition Zposition Zrotation Xrotation Yrotation 
								End Site
								{
									OFFSET 0.0 0.0 0.0
								}
							}
						}
					}
				}
			}
		}
		JOINT UpperLeg_L
		{
			OFFSET -2.19248 -6.46944 0.0
			CHANNELS 6 Xposition Yposition Zposition Zrotation Xrotation Yrotation 
			JOINT LowerLeg_L
			{
				OFFSET 39.0811 0.0 -1.23785e-05
				CHANNELS 6 Xposition Yposition Zposition Zrotation Xrotation Yrotation 
				JOINT Foot_L
				{
					OFFSET 40.9854 0.0 -1.26872e-05
					CHANNELS 6 Xposition Yposition Zposition Zrotation Xrotation Yrotation 
					JOINT Toes_L
					{
						OFFSET 11.7543 0.0 0.0
						CHANNELS 6 Xposition Yposition Zposition Zrotation Xrotation Yrotation 
						End Site
						{
							OFFSET 0.0 0.0 0.0
						}
					}
				}
			}
		}
		JOINT UpperLeg_R
		{
			OFFSET -2.19251 6.46944 0.0
			CHANNELS 6 Xposition Yposition Zposition Zrotation Xrotation Yrotation 
			JOINT LowerLeg_R
			{
				OFFSET -39.0811 -0.00228153 -0.0401928
				CHANNELS 6 Xposition Yposition Zposition Zrotation Xrotation Yrotation 
				JOINT Foot_R
				{
					OFFSET -40.9854 0.0 0.0
					CHANNELS 6 Xposition Yposition Zposition Zrotation Xrotation Yrotation 
					JOINT Toes_R
					{
						OFFSET -11.7543 0.0 0.0
						CHANNELS 6 Xposition Yposition Zposition Zrotation Xrotation Yrotation 
						End Site
						{
							OFFSET 0.0 0.0 0.0
						}
					}
				}
			}
		}
	}
}
MOTION
Frames:	9
Frame Time:	0.0333333
0.000000 0.000000 0.000000 0.000000 0.000000 -0.000000 -2.559380 91.720100 -1.041070 83.158700 0.115133 6.553040 15.735700 0.000005 -0.000001 76.868500 86.341400 -75.119800 8.984550 -0.406207 -0.000000 -0.610340 -1.789790 3.486270 16.377300 -0.000001 -0.000001 11.095000 1.275050 5.221450 6.456720 -0.000001 -0.000000 -6.213790 -0.343763 13.891500 12.994200 -0.242716 4.980390 -92.879000 7.996540 -70.125100 5.348090 -0.000007 -0.000001 -72.501300 22.445300 1.643500 24.328600 0.000019 0.000005 10.602200 25.938500 -23.168000 22.291600 -0.000001 0.000005 -1.609330 4.949250 8.380540 12.994500 -0.242716 -4.980390 87.058000 6.678310 -66.158400 -5.348130 -0.000001 -0.000004 -73.049400 -9.061260 -23.051700 -24.328900 0.000322 -0.000009 9.007480 -11.601800 -141.753000 -22.291500 -0.000108 -0.000004 42.686500 5.659610 -16.014300 -2.192480 -6.469440 -0.000000 -173.331000 10.000000 -2.488100 39.081100 -0.000007 -0.000012 0.438712 -0.751265 30.284500 40.985400 -0.000006 -0.000013 -1.112110 -1.308130 -77.037600 11.754300 -0.000000 0.000003 0.000344 0.161619 -10.021900 -2.192510 6.469440 -0.000001 -170.279000 9.257180 -175.104000 -39.081100 -0.002282 -0.040193 0.121592 -0.381564 17.220900 -40.985400 0.000008 0.000006 4.469150 3.551500 -71.781700 -11.754300 -0.000006 -0.000006 -0.010914 0.278010 -5.276670
0.000000 0.000000 0.000000 0.000000 0.000000 -0.000000 -2.532200 91.757700 -1.049420 83.239300 0.212178 6.440760 15.735700 0.000005 -0.000001 76.923700 86.319900 -75.197300 8.984550 -0.406207 -0.000000 -0.567215 -1.790380 3.442340 16.377300 -0.000001 -0.000001 11.076400 1.277600 5.067550 6.456720 -0.000001 -0.000000 -6.195870 -0.335214 13.577400 12.994200 -0.242716 4.980390 -92.891700 8.014960 -70.085800 5.348090 -0.000007 -0.000001 -72.482500 22.372300 1.590350 24.328600 0.000019 0.000005 10.544100 25.806000 -23.150400 22.291600 -0.000001 0.000005 -1.531980 4.947870 8.408960 12.994500 -0.242716 -4.980390 87.057700 6.679530 -66.160100 -5.348130 -0.000001 -0.000004 -72.964200 -8.837420 -22.785500 -24.328900 0.000322 -0.000009 8.982930 -11.524900 -141.647000 -22.291500 -0.000108 -0.000004 42.924700 5.659720 -16.027800 -2.192480 -6.469440 -0.000000 -173.396000 9.965110 -2.516910 39.081100 -0.000007 -0.000012 0.431383 -0.745527 30.056000 40.985400 -0.000006 -0.000013 -1.056460 -1.208980 -76.921800 11.754300 -0.000000 0.000003 0.000227 0.163714 -9.936830 -2.192510 6.469440 -0.000001 -170.382000 9.234590 -175.192000 -39.081100 -0.002282 -0.040193 0.114224 -0.359935 17.124500 -40.985400 0.000008 0.000006 4.121370 3.517440 -71.660900 -11.754300 -0.000006 -0.000006 -0.010938 0.278183 -5.269570
0.000000 0.000000 0.000000 0.000000 0.000000 -0.000000 -2.505250 91.783400 -1.062200 83.325800 0.266900 6.320250 15.735700 0.000005 -0.000001 77.079500 86.297300 -75.356200 8.984550 -0.406207 -0.000000 -0.518920 -1.780010 3.436840 16.377300 -0.000001 -0.000001 11.091600 1.304460 4.865060 6.456720 -0.000001 -0.000000 -6.226970 -0.286601 13.169300 12.994200 -0.242716 4.980390 -92.910800 8.036750 -70.014100 5.348090 -0.000007 -0.000001 -72.466600 22.469500 1.531340 24.328600 0.000019 0.000005 10.598400 25.787800 -23.273000 22.291600 -0.000001 0.000005 -1.541300 4.949200 8.381500 12.994500 -0.242716 -4.980390 87.047600 6.698590 -66.147400 -5.348130 -0.000001 -0.000004 -72.855400 -8.624150 -22.640200 -24.328900 0.000322 -0.000009 8.852200 -11.329000 -141.591000 -22.291500 -0.000108 -0.000004 42.591600 5.658610 -15.901400 -2.192480 -6.469440 -0.000000 -173.464000 9.885660 -2.582370 39.081100 -0.000007 -0.000012 0.424413 -0.738582 29.884200 40.985400 -0.000006 -0.000013 -1.009520 -1.140450 -76.788500 11.754300 -0.000000 0.000003 0.000146 0.165129 -9.879400 -2.192510 6.469440 -0.000001 -170.423000 9.033600 -175.258000 -39.081100 -0.002282 -0.040193 0.113408 -0.360520 16.979700 -40.985400 0.000008 0.000006 4.164280 3.295500 -71.590000 -11.754300 -0.000006 -0.000006 -0.011140 0.279636 -5.210100
0.000000 0.000000 0.000000 0.000000 0.000000 -0.000000 -2.464470 91.802100 -1.079960 83.404100 0.298926 6.229440 15.735700 0.000005 -0.000001 77.213100 86.256300 -75.476900 8.984550 -0.406207 -0.000000 -0.434741 -1.781000 3.463820 16.377300 -0.000001 -0.000001 11.077900 1.318900 4.658620 6.456720 -0.000001 -0.000000 -6.205040 -0.216596 12.664900 12.994200 -0.242716 4.980390 -92.935600 8.092220 -69.983600 5.348090 -0.000007 -0.000001 -72.467300 22.265700 1.572410 24.328600 0.000019 0.000005 10.628500 25.547700 -23.515800 22.291600 -0.000001 0.000005 -1.555330 4.951310 8.338200 12.994500 -0.242716 -4.980390 87.055500 6.682380 -66.153500 -5.348130 -0.000001 -0.000004 -72.829800 -8.575990 -22.518800 -24.328900 0.000322 -0.000009 8.839290 -11.228200 -141.386000 -22.291500 -0.000108 -0.000004 42.206300 5.658800 -15.922900 -2.192480 -6.469440 -0.000000 -173.540000 9.845870 -2.638210 39.081100 -0.000007 -0.000012 0.421777 -0.737781 29.757000 40.985400 -0.000006 -0.000013 -0.956538 -1.062900 -76.678300 11.754300 -0.000000 0.000003 0.000196 0.164253 -9.914960 -2.192510 6.469440 -0.000001 -170.517000 9.034780 -175.367000 -39.081100 -0.002282 -0.040193 0.112217 -0.356437 16.987800 -40.985400 0.000008 0.000006 4.009220 3.298060 -71.568300 -11.754300 -0.000006 -0.000006 -0.011395 0.281453 -5.135720
0.000000 0.000000 0.000000 0.000000 0.000000 -0.000000 -2.432620 91.824500 -1.114680 83.476600 0.351464 6.098310 15.735700 0.000005 -0.000001 77.312700 86.232900 -75.571600 8.984550 -0.406207 -0.000000 -0.386227 -1.778170 3.474560 16.377300 -0.000001 -0.000001 11.083500 1.262640 4.446890 6.456720 -0.000001 -0.000000 -6.151510 -0.151329 12.253200 12.994200 -0.242716 4.980390 -92.939300 8.093170 -69.962600 5.348090 -0.000007 -0.000001 -72.499100 22.012300 1.588920 24.328600 0.000019 0.000005 10.585700 25.160600 -23.728800 22.291600 -0.000001 0.000005 -1.530530 4.949200 8.381510 12.994500 -0.242716 -4.980390 87.019400 6.768260 -66.164200 -5.348130 -0.000001 -0.000004 -72.626300 -8.639570 -22.265300 -24.328900 0.000322 -0.000009 8.845670 -11.131700 -141.128000 -22.291500 -0.000108 -0.000004 42.082900 5.657170 -15.744100 -2.192480 -6.469440 -0.000000 -173.599000 9.756020 -2.754260 39.081100 -0.000007 -0.000012 0.417192 -0.733428 29.633300 40.985400 -0.000006 -0.000013 -0.916729 -1.020330 -76.584400 11.754300 -0.000000 0.000003 0.000047 0.166837 -9.810040 -2.192510 6.469440 -0.000001 -170.606000 9.070320 -175.501000 -39.081100 -0.002282 -0.040193 0.111479 -0.355313 16.929500 -40.985400 0.000008 0.000006 4.024210 3.366260 -71.520800 -11.754300 -0.000006 -0.000006 -0.011001 0.278637 -5.250980
0.000000 0.000000 0.000000 0.000000 0.000000 -0.000000 -2.402080 91.847100 -1.155640 83.507200 0.413426 5.991700 15.735700 0.000005 -0.000001 77.410800 86.197700 -75.640000 8.984550 -0.406207 -0.000000 -0.314116 -1.781910 3.534950 16.377300 -0.000001 -0.000001 11.140300 1.322010 4.176870 6.456720 -0.000001 -0.000000 -6.225200 -0.030489 11.855600 12.994200 -0.242716 4.980390 -92.963400 8.133400 -69.902600 5.348090 -0.000007 -0.000001 -72.476400 21.993800 1.535520 24.328600 0.000019 0.000005 10.730300 25.234000 -23.965200 22.291600 -0.000001 0.000005 -1.256350 4.953570 8.291590 12.994500 -0.242716 -4.980390 87.002100 6.829500 -66.230900 -5.348130 -0.000001 -0.000004 -72.293000 -8.837270 -21.849800 -24.328900 0.000322 -0.000009 8.950320 -11.178200 -140.908000 -22.291500 -0.000108 -0.000004 41.736800 5.652390 -15.245500 -2.192480 -6.469440 -0.000000 -173.619000 9.744710 -2.857060 39.081100 -0.000007 -0.000012 0.415362 -0.733377 29.526900 40.985400 -0.000006 -0.000013 -0.872165 -0.940998 -76.480800 11.754300 -0.000000 0.000003 0.000214 0.163932 -9.927990 -2.192510 6.469440 -0.000001 -170.668000 9.155190 -175.611000 -39.081100 -0.002282 -0.040193 0.108506 -0.346821 16.870900 -40.985400 0.000008 0.000006 3.900660 3.417410 -71.471300 -11.754300 -0.000006 -0.000006 -0.011314 0.280876 -5.159330
0.000000 0.000000 0.000000 0.000000 0.000000 -0.000000 -2.375630 91.873800 -1.196380 83.527700 0.457422 5.908570 15.735700 0.000005 -0.000001 77.873200 86.153000 -76.068700 8.984550 -0.406207 -0.000000 -0.213460 -1.741550 3.603980 16.377300 -0.000001 -0.000001 11.073600 1.461540 3.877200 6.456720 -0.000001 -0.000000 -6.265040 0.161224 11.493100 12.994200 -0.242716 4.980390 -92.981100 8.171120 -69.876800 5.348090 -0.000007 -0.000001 -72.439600 21.959300 1.463770 24.328600 0.000019 0.000005 10.792200 25.123000 -24.178900 22.291600 -0.000001 0.000005 -1.253910 4.952440 8.314940 12.994500 -0.242716 -4.980390 86.949500 6.949920 -66.230200 -5.348130 -0.000001 -0.000004 -71.774100 -9.379270 -21.266300 -24.328900 0.000322 -0.000009 8.593540 -10.633000 -140.681000 -22.291500 -0.000108 -0.000004 40.895800 5.650940 -15.104200 -2.192480 -6.469440 -0.000000 -173.617000 9.660290 -2.924910 39.081100 -0.000007 -0.000012 0.406431 -0.721362 29.398900 40.985400 -0.000006 -0.000013 -0.827971 -0.851362 -76.358600 11.754300 -0.000000 0.000003 0.000149 0.165070 -9.881780 -2.192510 6.469440 -0.000001 -170.711000 9.131200 -175.692000 -39.081100 -0.002282 -0.040193 0.103658 -0.332669 16.783100 -40.985400 0.000008 0.000006 3.716960 3.452880 -71.324500 -11.754300 -0.000006 -0.000006 -0.011307 0.280825 -5.161430
0.000000 0.000000 0.000000 0.000000 0.000000 -0.000000 -2.321990 91.894600 -1.258840 83.597400 0.493778 5.759560 15.735700 0.000005 -0.000001 78.067600 86.118600 -76.233800 8.984550 -0.406207 -0.000000 -0.140371 -1.731090 3.663460 16.377300 -0.000001 -0.000001 10.985900 1.579520 3.546400 6.456720 -0.000001 -0.000000 -6.259690 0.413569 11.008600 12.994200 -0.242716 4.980390 -92.999400 8.210870 -69.852900 5.348090 -0.000007 -0.000001 -72.449200 21.695800 1.397820 24.328600 0.000019 0.000005 10.777200 24.913900 -24.316100 22.291600 -0.000001 0.000005 -1.097700 4.951250 8.339310 12.994500 -0.242716 -4.980390 86.908800 7.060980 -66.283200 -5.348130 -0.000001 -0.000004 -70.968200 -9.819770 -20.431800 -24.328900 0.000322 -0.000009 8.701310 -10.551400 -140.111000 -22.291500 -0.000108 -0.000004 40.829400 5.647980 -14.826000 -2.192480 -6.469440 -0.000000 -173.681000 9.584350 -3.080890 39.081100 -0.000007 -0.000012 0.408163 -0.727533 29.294500 40.985400 -0.000006 -0.000013 -0.774417 -0.786599 -76.244000 11.754300 -0.000000 0.000003 0.000015 0.167369 -9.788410 -2.192510 6.469440 -0.000001 -170.734000 8.984630 -175.870000 -39.081100 -0.002282 -0.040193 0.106324 -0.342466 16.738800 -40.985400 0.000008 0.000006 3.751840 3.249020 -71.313900 -11.754300 -0.000006 -0.000006 -0.011327 0.280970 -5.155510
0.000000 0.000000 0.000000 0.000000 0.000000 -0.000000 -2.261990 91.935500 -1.303070 83.674300 0.459285 5.680900 15.735700 0.000005 -0.000001 78.710000 86.076700 -76.835200 8.984550 -0.406207 -0.000000 -0.041043 -1.663460 3.746890 16.377300 -0.000001 -0.000001 10.888900 1.703070 3.115230 6.456720 -0.000001 -0.000000 -6.251370 0.527723 10.483600 12.994200 -0.242716 4.980390 -93.020100 8.274490 -69.866900 5.348090 -0.000007 -0.000001 -72.441400 21.625100 1.367640 24.328600 0.000019 0.000005 10.801700 24.831000 -24.433300 22.291600 -0.000001 0.000005 -0.943094 4.947100 8.424720 12.994500 -0.242716 -4.980390 86.849400 7.185950 -66.248700 -5.348130 -0.000001 -0.000004 -69.966700 -10.240600 -19.274600 -24.328900 0.000322 -0.000009 9.196540 -10.768700 -139.090000 -22.291500 -0.000108 -0.000004 40.902700 5.649120 -14.933000 -2.192480 -6.469440 -0.000000 -173.765000 9.455030 -3.072650 39.081100 -0.000007 -0.000012 0.397478 -0.715538 29.053000 40.985400 -0.000006 -0.000013 -0.712530 -0.741714 -76.065000 11.754300 -0.000000 0.000003 0.000045 0.166869 -9.808720 -2.192510 6.469440 -0.000001 -170.775000 8.529750 -175.919000 -39.081100 -0.002282 -0.040193 0.101297 -0.328744 16.594800 -40.985400 0.000008 0.000006 3.531500 2.956320 -71.120300 -11.754300 -0.000006 -0.000006 -0.011017 0.278756 -5.246120
